solid Dice Roller 4.7 Banner
facet normal 1.3701147559779095e-15 -0.9999608299113556 -0.008850911986526993
  outer loop
    vertex -1.762479051592436e-16 5.639932965095795e-15 39.624999999999865
    vertex 2.0000000000000075 -0.055606360050384836 45.907311023879025
    vertex 5.287437154777307e-16 -0.05560636005039048 45.907311023879025
  endloop
endfacet
facet normal 1.3701147559779095e-15 -0.9999608299113556 -0.008850911986526993
  outer loop
    vertex 2.0000000000000075 -0.055606360050384836 45.907311023879025
    vertex -1.762479051592436e-16 5.639932965095795e-15 39.624999999999865
    vertex 2.000000000000007 1.127986593019159e-14 39.624999999999865
  endloop
endfacet
facet normal 1.3734075804311452e-15 -0.9990209012050543 0.04424069343309847
  outer loop
    vertex -1.4099832412739487e-15 -0.50035269887153 20.785940675023014
    vertex 2.0000000000000067 -0.22240801569481702 27.062346543123436
    vertex -1.233735336114705e-15 -0.2224080156948283 27.062346543123436
  endloop
endfacet
facet normal 1.3734075804311452e-15 -0.9990209012050543 0.04424069343309847
  outer loop
    vertex 2.0000000000000067 -0.22240801569481702 27.062346543123436
    vertex -1.4099832412739487e-15 -0.50035269887153 20.785940675023014
    vertex 2.000000000000006 -0.5003526988715187 20.785940675023014
  endloop
endfacet
facet normal 1.3681578910626687e-15 -0.9996474876135075 -0.026549962485893808
  outer loop
    vertex 5.287437154777307e-16 -0.05560636005039048 45.907311023879025
    vertex 2.000000000000009 -0.22240801569473242 52.187653456876305
    vertex 1.233735336114705e-15 -0.22240801569473806 52.187653456876305
  endloop
endfacet
facet normal 1.3681578910626687e-15 -0.9996474876135075 -0.026549962485893808
  outer loop
    vertex 2.000000000000009 -0.22240801569473242 52.187653456876305
    vertex 5.287437154777307e-16 -0.05560636005039048 45.907311023879025
    vertex 2.0000000000000075 -0.055606360050384836 45.907311023879025
  endloop
endfacet
facet normal 1.3657723076170826e-15 -0.9990209012050536 -0.04424069343311249
  outer loop
    vertex 1.233735336114705e-15 -0.22240801569473806 52.187653456876305
    vertex 2.0000000000000093 -0.5003526988715131 58.46405932497674
    vertex 1.9387269567516795e-15 -0.5003526988715243 58.46405932497674
  endloop
endfacet
facet normal 1.3657723076170826e-15 -0.9990209012050536 -0.04424069343311249
  outer loop
    vertex 2.0000000000000093 -0.5003526988715131 58.46405932497674
    vertex 1.233735336114705e-15 -0.22240801569473806 52.187653456876305
    vertex 2.000000000000009 -0.22240801569473242 52.187653456876305
  endloop
endfacet
facet normal 1.3727400119801323e-15 -0.9996474876135071 0.02654996248590853
  outer loop
    vertex -1.233735336114705e-15 -0.2224080156948283 27.062346543123436
    vertex 2.0000000000000067 -0.055606360050379194 33.34268897612069
    vertex -5.287437154777307e-16 -0.05560636005039048 33.34268897612069
  endloop
endfacet
facet normal 1.3727400119801323e-15 -0.9996474876135071 0.02654996248590853
  outer loop
    vertex 2.0000000000000067 -0.055606360050379194 33.34268897612069
    vertex -1.233735336114705e-15 -0.2224080156948283 27.062346543123436
    vertex 2.0000000000000067 -0.22240801569481702 27.062346543123436
  endloop
endfacet
facet normal 1.3521226241023756e-15 -0.9952641311356936 -0.09720755770367469
  outer loop
    vertex 4.229949723821846e-15 -1.389287966989307 70.99719625441749
    vertex 2.0000000000000133 -1.9999999999999793 77.25000000000021
    vertex 5.816180870255038e-15 -1.9999999999999851 77.25000000000021
  endloop
endfacet
facet normal 1.3521226241023756e-15 -0.9952641311356936 -0.09720755770367469
  outer loop
    vertex 2.0000000000000133 -1.9999999999999793 77.25000000000021
    vertex 4.229949723821846e-15 -1.389287966989307 70.99719625441749
    vertex 2.0000000000000235 -1.3892879669893012 70.99719625441749
  endloop
endfacet
facet normal 1.3553001506909896e-15 -0.9952641311356942 0.09720755770366714
  outer loop
    vertex -8.81239525796218e-16 -1.9999999999999962 1.9999999999999962
    vertex 2.000000000000018 -1.389287966989403 8.252803745582291
    vertex -1.233735336114705e-15 -1.3892879669894085 8.252803745582291
  endloop
endfacet
facet normal 1.3553001506909896e-15 -0.9952641311356942 0.09720755770366714
  outer loop
    vertex 2.000000000000018 -1.389287966989403 8.252803745582291
    vertex -8.81239525796218e-16 -1.9999999999999962 1.9999999999999962
    vertex 2.000000000000007 -1.9999999999999907 1.9999999999999962
  endloop
endfacet
facet normal 1.3629587531746287e-15 -0.9980812670297091 -0.06191756135678141
  outer loop
    vertex 1.9387269567516795e-15 -0.5003526988715243 58.46405932497674
    vertex 2.000000000000011 -0.8893533143435165 64.73456188770601
    vertex 2.996214387707141e-15 -0.8893533143435278 64.73456188770601
  endloop
endfacet
facet normal 1.3629587531746287e-15 -0.9980812670297091 -0.06191756135678141
  outer loop
    vertex 2.000000000000011 -0.8893533143435165 64.73456188770601
    vertex 1.9387269567516795e-15 -0.5003526988715243 58.46405932497674
    vertex 2.0000000000000093 -0.5003526988715131 58.46405932497674
  endloop
endfacet
facet normal 1.3637866309595697e-15 -0.9968288795261402 -0.07957502712949603
  outer loop
    vertex 2.996214387707141e-15 -0.8893533143435278 64.73456188770601
    vertex 2.0000000000000235 -1.3892879669893012 70.99719625441749
    vertex 4.229949723821846e-15 -1.389287966989307 70.99719625441749
  endloop
endfacet
facet normal 1.3637866309595697e-15 -0.9968288795261402 -0.07957502712949603
  outer loop
    vertex 2.0000000000000235 -1.3892879669893012 70.99719625441749
    vertex 2.996214387707141e-15 -0.8893533143435278 64.73456188770601
    vertex 2.000000000000011 -0.8893533143435165 64.73456188770601
  endloop
endfacet
facet normal 1.3716422891702313e-15 -0.9999608299113556 0.008850911986527295
  outer loop
    vertex -5.287437154777307e-16 -0.05560636005039048 33.34268897612069
    vertex 2.000000000000007 1.127986593019159e-14 39.624999999999865
    vertex -1.762479051592436e-16 5.639932965095795e-15 39.624999999999865
  endloop
endfacet
facet normal 1.3716422891702313e-15 -0.9999608299113556 0.008850911986527295
  outer loop
    vertex 2.000000000000007 1.127986593019159e-14 39.624999999999865
    vertex -5.287437154777307e-16 -0.05560636005039048 33.34268897612069
    vertex 2.0000000000000067 -0.055606360050379194 33.34268897612069
  endloop
endfacet
facet normal 1.3736447853376472e-15 -0.9980812670297089 0.06191756135678172
  outer loop
    vertex -1.4099832412739487e-15 -0.889353314343539 14.51543811229375
    vertex 2.000000000000006 -0.5003526988715187 20.785940675023014
    vertex -1.4099832412739487e-15 -0.50035269887153 20.785940675023014
  endloop
endfacet
facet normal 1.3736447853376472e-15 -0.9980812670297089 0.06191756135678172
  outer loop
    vertex 2.000000000000006 -0.5003526988715187 20.785940675023014
    vertex -1.4099832412739487e-15 -0.889353314343539 14.51543811229375
    vertex 2.000000000000007 -0.8893533143435335 14.51543811229375
  endloop
endfacet
facet normal 1.3663877843109502e-15 -0.9968288795261389 0.07957502712951102
  outer loop
    vertex -1.233735336114705e-15 -1.3892879669894085 8.252803745582291
    vertex 2.000000000000007 -0.8893533143435335 14.51543811229375
    vertex -1.4099832412739487e-15 -0.889353314343539 14.51543811229375
  endloop
endfacet
facet normal 1.3663877843109502e-15 -0.9968288795261389 0.07957502712951102
  outer loop
    vertex 2.000000000000007 -0.8893533143435335 14.51543811229375
    vertex -1.233735336114705e-15 -1.3892879669894085 8.252803745582291
    vertex 2.000000000000018 -1.389287966989403 8.252803745582291
  endloop
endfacet
facet normal -1.359718109375455e-15 0.9968288795261391 0.07957502712951016
  outer loop
    vertex 1.999999999999977 36.46534996698947 8.25280374558228
    vertex -1.78010384210836e-14 35.965415314343595 14.515438112293785
    vertex 1.9999999999999785 35.9654153143436 14.515438112293785
  endloop
endfacet
facet normal -1.359718109375455e-15 0.9968288795261391 0.07957502712951016
  outer loop
    vertex -1.78010384210836e-14 35.965415314343595 14.515438112293785
    vertex 1.999999999999977 36.46534996698947 8.25280374558228
    vertex -1.9034773757198308e-14 36.465349966989464 8.25280374558228
  endloop
endfacet
facet normal 2.109547012122136e-14 0.9952641311356949 0.0972075577036594
  outer loop
    vertex 1.9999999999999762 37.07606199999997 1.9999999999999625
    vertex -1.9034773757198308e-14 36.465349966989464 8.25280374558228
    vertex 1.999999999999977 36.46534996698947 8.25280374558228
  endloop
endfacet
facet normal 2.109547012122136e-14 0.9952641311356949 0.0972075577036594
  outer loop
    vertex -1.9034773757198308e-14 36.465349966989464 8.25280374558228
    vertex 1.9999999999999762 37.07606199999997 1.9999999999999625
    vertex -2.06210049036315e-14 37.07606200000005 1.9999999999999625
  endloop
endfacet
facet normal -1.370114755977908e-15 0.9999608299113554 0.008850911986541322
  outer loop
    vertex 1.9999999999999816 35.13166836005055 33.34268897612085
    vertex -2.5555946248090322e-14 35.07606200000006 39.62500000000003
    vertex 1.9999999999999818 35.07606200000007 39.62500000000003
  endloop
endfacet
facet normal -1.370114755977908e-15 0.9999608299113554 0.008850911986541322
  outer loop
    vertex -2.5555946248090322e-14 35.07606200000006 39.62500000000003
    vertex 1.9999999999999816 35.13166836005055 33.34268897612085
    vertex -2.6260937868727296e-14 35.13166836005055 33.34268897612085
  endloop
endfacet
facet normal -1.3670351526155132e-15 0.99808126702971 0.06191756135676686
  outer loop
    vertex 1.9999999999999785 35.9654153143436 14.515438112293785
    vertex -2.8023416920319732e-14 35.57641469887167 20.78594067502307
    vertex 1.9999999999999793 35.57641469887167 20.78594067502307
  endloop
endfacet
facet normal -1.3670351526155132e-15 0.99808126702971 0.06191756135676686
  outer loop
    vertex -2.8023416920319732e-14 35.57641469887167 20.78594067502307
    vertex 1.9999999999999785 35.9654153143436 14.515438112293785
    vertex -1.78010384210836e-14 35.965415314343595 14.515438112293785
  endloop
endfacet
facet normal -1.3657723076170828e-15 0.9990209012050536 0.04424069343311233
  outer loop
    vertex 1.9999999999999793 35.57641469887167 20.78594067502307
    vertex -2.7318425299682758e-14 35.29847001569489 27.06234654312352
    vertex 1.9999999999999805 35.29847001569489 27.06234654312352
  endloop
endfacet
facet normal -1.3657723076170828e-15 0.9990209012050536 0.04424069343311233
  outer loop
    vertex -2.7318425299682758e-14 35.29847001569489 27.06234654312352
    vertex 1.9999999999999793 35.57641469887167 20.78594067502307
    vertex -2.8023416920319732e-14 35.57641469887167 20.78594067502307
  endloop
endfacet
facet normal -1.3681578910626687e-15 0.9996474876135075 0.026549962485893565
  outer loop
    vertex 1.9999999999999805 35.29847001569489 27.06234654312352
    vertex -2.6260937868727296e-14 35.13166836005055 33.34268897612085
    vertex 1.9999999999999816 35.13166836005055 33.34268897612085
  endloop
endfacet
facet normal -1.3681578910626687e-15 0.9996474876135075 0.026549962485893565
  outer loop
    vertex -2.6260937868727296e-14 35.13166836005055 33.34268897612085
    vertex 1.9999999999999805 35.29847001569489 27.06234654312352
    vertex -2.7318425299682758e-14 35.29847001569489 27.06234654312352
  endloop
endfacet
facet normal -1.0 -6.854661110553644e-16 4.3146208962608054e-17
  outer loop
    vertex -2.9080904351275194e-14 35.076061999999965 -4.511946372076636e-14
    vertex -1.9034773757198308e-14 36.465349966989464 8.25280374558228
    vertex -2.06210049036315e-14 37.07606200000005 1.9999999999999625
  endloop
endfacet
facet normal -1.0 -6.854661110553644e-16 4.3146208962608054e-17
  outer loop
    vertex -1.9034773757198308e-14 36.465349966989464 8.25280374558228
    vertex -2.9080904351275194e-14 35.076061999999965 -4.511946372076636e-14
    vertex -1.78010384210836e-14 35.965415314343595 14.515438112293785
  endloop
endfacet
facet normal -1.0 -6.854661110553644e-16 4.3146208962608054e-17
  outer loop
    vertex -1.78010384210836e-14 35.965415314343595 14.515438112293785
    vertex -2.9080904351275194e-14 35.076061999999965 -4.511946372076636e-14
    vertex -2.8023416920319732e-14 35.57641469887167 20.78594067502307
  endloop
endfacet
facet normal -1.0 -6.854661110553644e-16 4.3146208962608054e-17
  outer loop
    vertex -2.8023416920319732e-14 35.57641469887167 20.78594067502307
    vertex -2.9080904351275194e-14 35.076061999999965 -4.511946372076636e-14
    vertex -2.7318425299682758e-14 35.29847001569489 27.06234654312352
  endloop
endfacet
facet normal -1.0 -6.854661110553644e-16 4.3146208962608054e-17
  outer loop
    vertex -2.7318425299682758e-14 35.29847001569489 27.06234654312352
    vertex -2.9080904351275194e-14 35.076061999999965 -4.511946372076636e-14
    vertex -2.6260937868727296e-14 35.13166836005055 33.34268897612085
  endloop
endfacet
facet normal -1.0 -6.854661110553644e-16 4.3146208962608054e-17
  outer loop
    vertex -2.6260937868727296e-14 35.13166836005055 33.34268897612085
    vertex -2.9080904351275194e-14 35.076061999999965 -4.511946372076636e-14
    vertex -2.5555946248090322e-14 35.07606200000006 39.62500000000003
  endloop
endfacet
facet normal -1.0 -6.854661110553644e-16 4.3146208962608054e-17
  outer loop
    vertex -3.877453913503359e-15 0.0 0.0
    vertex -5.287437154777307e-16 -0.05560636005039048 33.34268897612069
    vertex -1.762479051592436e-16 5.639932965095795e-15 39.624999999999865
  endloop
endfacet
facet normal -1.0 -6.854661110553644e-16 4.3146208962608054e-17
  outer loop
    vertex -5.287437154777307e-16 -0.05560636005039048 33.34268897612069
    vertex -3.877453913503359e-15 0.0 0.0
    vertex -1.233735336114705e-15 -0.2224080156948283 27.062346543123436
  endloop
endfacet
facet normal -1.0 -6.854661110553644e-16 4.3146208962608054e-17
  outer loop
    vertex -1.233735336114705e-15 -0.2224080156948283 27.062346543123436
    vertex -3.877453913503359e-15 0.0 0.0
    vertex -1.4099832412739487e-15 -0.50035269887153 20.785940675023014
  endloop
endfacet
facet normal -1.0 -6.854661110553644e-16 4.3146208962608054e-17
  outer loop
    vertex -1.4099832412739487e-15 -0.50035269887153 20.785940675023014
    vertex -3.877453913503359e-15 0.0 0.0
    vertex -1.4099832412739487e-15 -0.889353314343539 14.51543811229375
  endloop
endfacet
facet normal -1.0 -6.854661110553644e-16 4.3146208962608054e-17
  outer loop
    vertex -1.4099832412739487e-15 -0.889353314343539 14.51543811229375
    vertex -3.877453913503359e-15 0.0 0.0
    vertex -1.233735336114705e-15 -1.3892879669894085 8.252803745582291
  endloop
endfacet
facet normal -1.0 -6.854661110553644e-16 4.3146208962608054e-17
  outer loop
    vertex -1.233735336114705e-15 -1.3892879669894085 8.252803745582291
    vertex -3.877453913503359e-15 0.0 0.0
    vertex -8.81239525796218e-16 -1.9999999999999962 1.9999999999999962
  endloop
endfacet
facet normal -1.0 -6.854661110553644e-16 4.3146208962608054e-17
  outer loop
    vertex -2.4850954627453345e-14 36.46534996698938 70.99719625441782
    vertex -3.524958103184872e-16 17.53803099999998 57.711969000000195
    vertex -2.5203450437771834e-14 37.07606200000006 77.2500000000002
  endloop
endfacet
facet normal -1.0 -6.854661110553644e-16 4.3146208962608054e-17
  outer loop
    vertex -3.524958103184872e-16 17.53803099999998 57.711969000000195
    vertex -2.4850954627453345e-14 36.46534996698938 70.99719625441782
    vertex -2.4674706722294104e-14 35.965415314343694 64.73456188770629
  endloop
endfacet
facet normal -1.0 -6.854661110553644e-16 4.3146208962608054e-17
  outer loop
    vertex -3.524958103184872e-16 17.53803099999998 57.711969000000195
    vertex -2.4674706722294104e-14 35.965415314343694 64.73456188770629
    vertex -2.4674706722294104e-14 35.57641469887159 58.464059324977
  endloop
endfacet
facet normal -1.0 -6.854661110553644e-16 4.3146208962608054e-17
  outer loop
    vertex -3.524958103184872e-16 17.53803099999998 57.711969000000195
    vertex -2.4674706722294104e-14 35.57641469887159 58.464059324977
    vertex -2.4850954627453345e-14 35.29847001569481 52.18765345687653
  endloop
endfacet
facet normal -1.0 -6.854661110553644e-16 4.3146208962608054e-17
  outer loop
    vertex -3.524958103184872e-16 17.53803099999998 57.711969000000195
    vertex -2.4850954627453345e-14 35.29847001569481 52.18765345687653
    vertex -2.5203450437771834e-14 35.13166836005055 45.907311023879224
  endloop
endfacet
facet normal -1.0 -6.854661110553644e-16 4.3146208962608054e-17
  outer loop
    vertex -3.524958103184872e-16 17.53803099999998 57.711969000000195
    vertex -2.5203450437771834e-14 35.13166836005055 45.907311023879224
    vertex -2.5555946248090322e-14 35.07606200000006 39.62500000000003
  endloop
endfacet
facet normal -1.0 -6.854661110553644e-16 4.3146208962608054e-17
  outer loop
    vertex -3.524958103184872e-16 17.53803099999998 57.711969000000195
    vertex -2.5555946248090322e-14 35.07606200000006 39.62500000000003
    vertex -2.9080904351275194e-14 35.076061999999965 -4.511946372076636e-14
  endloop
endfacet
facet normal -1.0 -6.854661110553644e-16 4.3146208962608054e-17
  outer loop
    vertex -3.524958103184872e-16 17.53803099999998 57.711969000000195
    vertex -2.9080904351275194e-14 35.076061999999965 -4.511946372076636e-14
    vertex -3.877453913503359e-15 0.0 0.0
  endloop
endfacet
facet normal -1.0 -6.854661110553644e-16 4.3146208962608054e-17
  outer loop
    vertex -3.524958103184872e-16 17.53803099999998 57.711969000000195
    vertex -3.877453913503359e-15 0.0 0.0
    vertex -1.762479051592436e-16 5.639932965095795e-15 39.624999999999865
  endloop
endfacet
facet normal -1.0 -6.854661110553644e-16 4.3146208962608054e-17
  outer loop
    vertex -3.524958103184872e-16 17.53803099999998 57.711969000000195
    vertex -1.762479051592436e-16 5.639932965095795e-15 39.624999999999865
    vertex 5.287437154777307e-16 -0.05560636005039048 45.907311023879025
  endloop
endfacet
facet normal -1.0 -6.854661110553644e-16 4.3146208962608054e-17
  outer loop
    vertex -3.524958103184872e-16 17.53803099999998 57.711969000000195
    vertex 5.287437154777307e-16 -0.05560636005039048 45.907311023879025
    vertex 1.233735336114705e-15 -0.22240801569473806 52.187653456876305
  endloop
endfacet
facet normal -1.0 -6.854661110553644e-16 4.3146208962608054e-17
  outer loop
    vertex -3.524958103184872e-16 17.53803099999998 57.711969000000195
    vertex 1.233735336114705e-15 -0.22240801569473806 52.187653456876305
    vertex 1.9387269567516795e-15 -0.5003526988715243 58.46405932497674
  endloop
endfacet
facet normal -1.0 -6.854661110553644e-16 4.3146208962608054e-17
  outer loop
    vertex -3.524958103184872e-16 17.53803099999998 57.711969000000195
    vertex 1.9387269567516795e-15 -0.5003526988715243 58.46405932497674
    vertex 2.996214387707141e-15 -0.8893533143435278 64.73456188770601
  endloop
endfacet
facet normal -1.0 -6.854661110553644e-16 4.3146208962608054e-17
  outer loop
    vertex -3.524958103184872e-16 17.53803099999998 57.711969000000195
    vertex 2.996214387707141e-15 -0.8893533143435278 64.73456188770601
    vertex 4.229949723821846e-15 -1.389287966989307 70.99719625441749
  endloop
endfacet
facet normal -1.0 -6.854661110553644e-16 4.3146208962608054e-17
  outer loop
    vertex -3.524958103184872e-16 17.53803099999998 57.711969000000195
    vertex 4.229949723821846e-15 -1.389287966989307 70.99719625441749
    vertex 5.816180870255038e-15 -1.9999999999999851 77.25000000000021
  endloop
endfacet
facet normal 0.5773502691896135 -0.5773502691896445 0.5773502691896193
  outer loop
    vertex 12.400000000000015 6.750000000000016 5.999999999999966
    vertex 12.400000000000007 7.749999999999969 6.9999999999999645
    vertex 11.400000000000002 6.750000000000016 6.9999999999999645
  endloop
endfacet
facet normal -1.3736447853376472e-15 0.998081267029708 -0.06191756135679568
  outer loop
    vertex 1.9999999999999827 35.57641469887159 58.464059324977
    vertex -2.4674706722294104e-14 35.965415314343694 64.73456188770629
    vertex 1.9999999999999827 35.965415314343694 64.73456188770629
  endloop
endfacet
facet normal -1.3736447853376472e-15 0.998081267029708 -0.06191756135679568
  outer loop
    vertex -2.4674706722294104e-14 35.965415314343694 64.73456188770629
    vertex 1.9999999999999827 35.57641469887159 58.464059324977
    vertex -2.4674706722294104e-14 35.57641469887159 58.464059324977
  endloop
endfacet
facet normal -1.371642289170232e-15 0.9999608299113554 -0.008850911986541626
  outer loop
    vertex 1.9999999999999818 35.07606200000007 39.62500000000003
    vertex -2.5203450437771834e-14 35.13166836005055 45.907311023879224
    vertex 1.9999999999999827 35.131668360050554 45.907311023879224
  endloop
endfacet
facet normal -1.371642289170232e-15 0.9999608299113554 -0.008850911986541626
  outer loop
    vertex -2.5203450437771834e-14 35.13166836005055 45.907311023879224
    vertex 1.9999999999999818 35.07606200000007 39.62500000000003
    vertex -2.5555946248090322e-14 35.07606200000006 39.62500000000003
  endloop
endfacet
facet normal -1.3727400119801313e-15 0.999647487613508 -0.026549962485879586
  outer loop
    vertex 1.9999999999999827 35.131668360050554 45.907311023879224
    vertex -2.4850954627453345e-14 35.29847001569481 52.18765345687653
    vertex 1.9999999999999827 35.29847001569481 52.187653456876546
  endloop
endfacet
facet normal -1.3727400119801313e-15 0.999647487613508 -0.026549962485879586
  outer loop
    vertex -2.4850954627453345e-14 35.29847001569481 52.18765345687653
    vertex 1.9999999999999827 35.131668360050554 45.907311023879224
    vertex -2.5203450437771834e-14 35.13166836005055 45.907311023879224
  endloop
endfacet
facet normal -1.3728279420798218e-15 0.9952641311356929 -0.09720755770367998
  outer loop
    vertex 1.9999999999999822 36.46534996698939 70.99719625441782
    vertex -2.5203450437771834e-14 37.07606200000006 77.2500000000002
    vertex 1.9999999999999822 37.07606200000007 77.2500000000002
  endloop
endfacet
facet normal -1.3728279420798218e-15 0.9952641311356929 -0.09720755770367998
  outer loop
    vertex -2.5203450437771834e-14 37.07606200000006 77.2500000000002
    vertex 1.9999999999999822 36.46534996698939 70.99719625441782
    vertex -2.4850954627453345e-14 36.46534996698938 70.99719625441782
  endloop
endfacet
facet normal -1.3734515523703957e-15 0.9968288795261413 -0.07957502712948177
  outer loop
    vertex 1.9999999999999827 35.965415314343694 64.73456188770629
    vertex -2.4850954627453345e-14 36.46534996698938 70.99719625441782
    vertex 1.9999999999999822 36.46534996698939 70.99719625441782
  endloop
endfacet
facet normal -1.3734515523703957e-15 0.9968288795261413 -0.07957502712948177
  outer loop
    vertex -2.4850954627453345e-14 36.46534996698938 70.99719625441782
    vertex 1.9999999999999827 35.965415314343694 64.73456188770629
    vertex -2.4674706722294104e-14 35.965415314343694 64.73456188770629
  endloop
endfacet
facet normal -1.3734075804311454e-15 0.9990209012050536 -0.04424069343311264
  outer loop
    vertex 1.9999999999999827 35.29847001569481 52.187653456876546
    vertex -2.4674706722294104e-14 35.57641469887159 58.464059324977
    vertex 1.9999999999999827 35.57641469887159 58.464059324977
  endloop
endfacet
facet normal -1.3734075804311454e-15 0.9990209012050536 -0.04424069343311264
  outer loop
    vertex -2.4674706722294104e-14 35.57641469887159 58.464059324977
    vertex 1.9999999999999827 35.29847001569481 52.187653456876546
    vertex -2.4850954627453345e-14 35.29847001569481 52.18765345687653
  endloop
endfacet
facet normal 0.5773502691896337 0.5773502691896091 -0.5773502691896346
  outer loop
    vertex 12.399999999999995 27.14999999999989 -4.511946372076636e-14
    vertex 11.399999999999993 28.14999999999993 -4.511946372076636e-14
    vertex 12.399999999999991 28.14999999999993 0.9999999999999644
  endloop
endfacet
facet normal 0.577350269189605 -0.5773502691896488 -0.5773502691896236
  outer loop
    vertex 12.400000000000007 7.749999999999969 -2.255973186038318e-14
    vertex 12.400000000000015 6.750000000000016 0.9999999999999756
    vertex 11.399999999999999 6.750000000000016 0.0
  endloop
endfacet
facet normal -1.0 -9.223056575274387e-16 4.0255034120161595e-16
  outer loop
    vertex 10.400000000000004 12.974999999999957 -2.255973186038318e-14
    vertex 10.399999999999991 21.924999999999997 1.9999999999999738
    vertex 10.399999999999991 21.924999999999997 -4.511946372076636e-14
  endloop
endfacet
facet normal -1.0 -9.223056575274387e-16 4.0255034120161595e-16
  outer loop
    vertex 10.399999999999984 28.149999999999928 1.9999999999999512
    vertex 10.400000000000015 6.750000000000016 6.9999999999999645
    vertex 10.399999999999986 28.14999999999993 6.999999999999976
  endloop
endfacet
facet normal -1.0 -9.223056575274387e-16 4.0255034120161595e-16
  outer loop
    vertex 10.400000000000015 6.750000000000016 6.9999999999999645
    vertex 10.399999999999984 28.149999999999928 1.9999999999999512
    vertex 10.399999999999991 21.924999999999997 1.9999999999999738
  endloop
endfacet
facet normal -1.0 -9.223056575274387e-16 4.0255034120161595e-16
  outer loop
    vertex 10.400000000000015 6.750000000000016 6.9999999999999645
    vertex 10.399999999999991 21.924999999999997 1.9999999999999738
    vertex 10.400000000000004 12.974999999999957 1.9999999999999738
  endloop
endfacet
facet normal -1.0 -9.223056575274387e-16 4.0255034120161595e-16
  outer loop
    vertex 10.400000000000004 12.974999999999957 1.9999999999999738
    vertex 10.399999999999991 21.924999999999997 1.9999999999999738
    vertex 10.400000000000004 12.974999999999957 -2.255973186038318e-14
  endloop
endfacet
facet normal -1.0 -9.223056575274387e-16 4.0255034120161595e-16
  outer loop
    vertex 10.400000000000015 6.750000000000016 6.9999999999999645
    vertex 10.400000000000004 12.974999999999957 1.9999999999999738
    vertex 10.39999999999999 6.750000000000016 1.9999999999999738
  endloop
endfacet
facet normal 1.370932222110736e-15 -1.0 1.5959455978986613e-16
  outer loop
    vertex 1.9999999999999833 6.750000000000004 -2.255973186038318e-14
    vertex 10.39999999999999 6.750000000000016 1.9999999999999738
    vertex 1.9999999999999953 6.750000000000004 1.9999999999999738
  endloop
endfacet
facet normal 1.370932222110736e-15 -1.0 1.5959455978986613e-16
  outer loop
    vertex 10.39999999999999 6.750000000000016 1.9999999999999738
    vertex 1.9999999999999833 6.750000000000004 -2.255973186038318e-14
    vertex 12.400000000000015 6.750000000000016 0.9999999999999756
  endloop
endfacet
facet normal 1.370932222110736e-15 -1.0 1.5959455978986613e-16
  outer loop
    vertex 12.400000000000015 6.750000000000016 0.9999999999999756
    vertex 1.9999999999999833 6.750000000000004 -2.255973186038318e-14
    vertex 11.399999999999999 6.750000000000016 0.0
  endloop
endfacet
facet normal 1.370932222110736e-15 -1.0 1.5959455978986613e-16
  outer loop
    vertex 10.39999999999999 6.750000000000016 1.9999999999999738
    vertex 11.400000000000002 6.750000000000016 6.9999999999999645
    vertex 10.400000000000015 6.750000000000016 6.9999999999999645
  endloop
endfacet
facet normal 1.370932222110736e-15 -1.0 1.5959455978986613e-16
  outer loop
    vertex 11.400000000000002 6.750000000000016 6.9999999999999645
    vertex 10.39999999999999 6.750000000000016 1.9999999999999738
    vertex 12.400000000000015 6.750000000000016 5.999999999999966
  endloop
endfacet
facet normal 1.370932222110736e-15 -1.0 1.5959455978986613e-16
  outer loop
    vertex 12.400000000000015 6.750000000000016 5.999999999999966
    vertex 10.39999999999999 6.750000000000016 1.9999999999999738
    vertex 12.400000000000015 6.750000000000016 0.9999999999999756
  endloop
endfacet
facet normal 0.5773502691896337 0.5773502691896093 0.5773502691896344
  outer loop
    vertex 12.399999999999995 27.14999999999989 6.999999999999976
    vertex 12.399999999999991 28.14999999999993 5.999999999999978
    vertex 11.399999999999997 28.14999999999993 6.999999999999976
  endloop
endfacet
facet normal 8.629241792521595e-17 1.5959455978986625e-16 1.0
  outer loop
    vertex 11.400000000000002 6.750000000000016 6.9999999999999645
    vertex 10.399999999999986 28.14999999999993 6.999999999999976
    vertex 10.400000000000015 6.750000000000016 6.9999999999999645
  endloop
endfacet
facet normal 8.629241792521595e-17 1.5959455978986625e-16 1.0
  outer loop
    vertex 10.399999999999986 28.14999999999993 6.999999999999976
    vertex 11.400000000000002 6.750000000000016 6.9999999999999645
    vertex 11.399999999999997 28.14999999999993 6.999999999999976
  endloop
endfacet
facet normal 8.629241792521595e-17 1.5959455978986625e-16 1.0
  outer loop
    vertex 11.399999999999997 28.14999999999993 6.999999999999976
    vertex 11.400000000000002 6.750000000000016 6.9999999999999645
    vertex 12.400000000000007 7.749999999999969 6.9999999999999645
  endloop
endfacet
facet normal 8.629241792521595e-17 1.5959455978986625e-16 1.0
  outer loop
    vertex 11.399999999999997 28.14999999999993 6.999999999999976
    vertex 12.400000000000007 7.749999999999969 6.9999999999999645
    vertex 12.399999999999995 27.14999999999989 6.999999999999976
  endloop
endfacet
facet normal 8.629241792521595e-17 1.5959455978986625e-16 1.0
  outer loop
    vertex 10.39999999999999 6.750000000000016 1.9999999999999738
    vertex 1.999999999999998 12.97500000000003 1.9999999999999738
    vertex 1.9999999999999953 6.750000000000004 1.9999999999999738
  endloop
endfacet
facet normal 8.629241792521595e-17 1.5959455978986625e-16 1.0
  outer loop
    vertex 1.999999999999998 12.97500000000003 1.9999999999999738
    vertex 10.39999999999999 6.750000000000016 1.9999999999999738
    vertex 10.400000000000004 12.974999999999957 1.9999999999999738
  endloop
endfacet
facet normal 1.0304134246814553e-15 -0.7071067811865458 0.7071067811865493
  outer loop
    vertex 1.999999999999996 17.538030999999982 57.711969000000195
    vertex -2.5203450437771834e-14 37.07606200000006 77.2500000000002
    vertex -3.524958103184872e-16 17.53803099999998 57.711969000000195
  endloop
endfacet
facet normal 1.0304134246814553e-15 -0.7071067811865458 0.7071067811865493
  outer loop
    vertex -2.5203450437771834e-14 37.07606200000006 77.2500000000002
    vertex 1.999999999999996 17.538030999999982 57.711969000000195
    vertex 1.9999999999999822 37.07606200000007 77.2500000000002
  endloop
endfacet
facet normal -1.1062214330633027e-15 0.7071067811865481 0.707106781186547
  outer loop
    vertex 1.999999999999996 17.538030999999982 57.711969000000195
    vertex 5.816180870255038e-15 -1.9999999999999851 77.25000000000021
    vertex 2.0000000000000133 -1.9999999999999793 77.25000000000021
  endloop
endfacet
facet normal -1.1062214330633027e-15 0.7071067811865481 0.707106781186547
  outer loop
    vertex 5.816180870255038e-15 -1.9999999999999851 77.25000000000021
    vertex 1.999999999999996 17.538030999999982 57.711969000000195
    vertex -3.524958103184872e-16 17.53803099999998 57.711969000000195
  endloop
endfacet
facet normal 1.0 7.497846811062597e-16 -1.2014401666331276e-16
  outer loop
    vertex 1.999999999999977 36.46534996698947 8.25280374558228
    vertex 1.9999999999999785 35.07606199999997 -3.3839597790574766e-14
    vertex 1.9999999999999762 37.07606199999997 1.9999999999999625
  endloop
endfacet
facet normal 1.0 7.497846811062597e-16 -1.2014401666331276e-16
  outer loop
    vertex 1.9999999999999785 35.07606199999997 -3.3839597790574766e-14
    vertex 1.999999999999977 36.46534996698947 8.25280374558228
    vertex 1.9999999999999785 35.9654153143436 14.515438112293785
  endloop
endfacet
facet normal 1.0 7.497846811062597e-16 -1.2014401666331276e-16
  outer loop
    vertex 1.9999999999999785 35.07606199999997 -3.3839597790574766e-14
    vertex 1.9999999999999785 35.9654153143436 14.515438112293785
    vertex 1.9999999999999793 35.57641469887167 20.78594067502307
  endloop
endfacet
facet normal 1.0 7.497846811062597e-16 -1.2014401666331276e-16
  outer loop
    vertex 1.9999999999999785 35.07606199999997 -3.3839597790574766e-14
    vertex 1.9999999999999793 35.57641469887167 20.78594067502307
    vertex 1.9999999999999805 35.29847001569489 27.06234654312352
  endloop
endfacet
facet normal 1.0 7.497846811062597e-16 -1.2014401666331276e-16
  outer loop
    vertex 1.9999999999999785 35.07606199999997 -3.3839597790574766e-14
    vertex 1.9999999999999805 35.29847001569489 27.06234654312352
    vertex 1.9999999999999816 35.13166836005055 33.34268897612085
  endloop
endfacet
facet normal 1.0 7.497846811062597e-16 -1.2014401666331276e-16
  outer loop
    vertex 1.9999999999999785 35.07606199999997 -3.3839597790574766e-14
    vertex 1.9999999999999816 35.13166836005055 33.34268897612085
    vertex 1.9999999999999818 35.07606200000007 39.62500000000003
  endloop
endfacet
facet normal 1.0 7.497846811062597e-16 -1.2014401666331276e-16
  outer loop
    vertex 1.999999999999996 17.538030999999982 57.711969000000195
    vertex 1.9999999999999822 36.46534996698939 70.99719625441782
    vertex 1.9999999999999822 37.07606200000007 77.2500000000002
  endloop
endfacet
facet normal 1.0 7.497846811062597e-16 -1.2014401666331276e-16
  outer loop
    vertex 1.9999999999999822 36.46534996698939 70.99719625441782
    vertex 1.999999999999996 17.538030999999982 57.711969000000195
    vertex 1.9999999999999827 35.965415314343694 64.73456188770629
  endloop
endfacet
facet normal 1.0 7.497846811062597e-16 -1.2014401666331276e-16
  outer loop
    vertex 1.9999999999999827 35.965415314343694 64.73456188770629
    vertex 1.999999999999996 17.538030999999982 57.711969000000195
    vertex 1.9999999999999827 35.57641469887159 58.464059324977
  endloop
endfacet
facet normal 1.0 7.497846811062597e-16 -1.2014401666331276e-16
  outer loop
    vertex 1.9999999999999827 35.57641469887159 58.464059324977
    vertex 1.999999999999996 17.538030999999982 57.711969000000195
    vertex 1.9999999999999827 35.29847001569481 52.187653456876546
  endloop
endfacet
facet normal 1.0 7.497846811062597e-16 -1.2014401666331276e-16
  outer loop
    vertex 1.9999999999999827 35.29847001569481 52.187653456876546
    vertex 1.999999999999996 17.538030999999982 57.711969000000195
    vertex 1.9999999999999827 35.131668360050554 45.907311023879224
  endloop
endfacet
facet normal 1.0 7.497846811062597e-16 -1.2014401666331276e-16
  outer loop
    vertex 1.9999999999999827 35.131668360050554 45.907311023879224
    vertex 1.999999999999996 17.538030999999982 57.711969000000195
    vertex 1.9999999999999818 35.07606200000007 39.62500000000003
  endloop
endfacet
facet normal 1.0 7.497846811062597e-16 -1.2014401666331276e-16
  outer loop
    vertex 1.9999999999999818 35.07606200000007 39.62500000000003
    vertex 1.999999999999996 17.538030999999982 57.711969000000195
    vertex 1.9999999999999785 35.07606199999997 -3.3839597790574766e-14
  endloop
endfacet
facet normal 1.0 7.497846811062597e-16 -1.2014401666331276e-16
  outer loop
    vertex 1.9999999999999785 35.07606199999997 -3.3839597790574766e-14
    vertex 1.999999999999996 17.538030999999982 57.711969000000195
    vertex 1.9999999999999887 28.149999999999913 1.9999999999999512
  endloop
endfacet
facet normal 1.0 7.497846811062597e-16 -1.2014401666331276e-16
  outer loop
    vertex 1.9999999999999887 28.149999999999913 1.9999999999999512
    vertex 1.999999999999996 17.538030999999982 57.711969000000195
    vertex 1.9999999999999858 21.92499999999998 1.9999999999999738
  endloop
endfacet
facet normal 1.0 7.497846811062597e-16 -1.2014401666331276e-16
  outer loop
    vertex 1.9999999999999858 21.92499999999998 1.9999999999999738
    vertex 1.999999999999996 17.538030999999982 57.711969000000195
    vertex 1.9999999999999851 21.92499999999998 -4.511946372076636e-14
  endloop
endfacet
facet normal 1.0 7.497846811062597e-16 -1.2014401666331276e-16
  outer loop
    vertex 1.9999999999999851 21.92499999999998 -4.511946372076636e-14
    vertex 1.999999999999996 17.538030999999982 57.711969000000195
    vertex 1.9999999999999973 12.97500000000003 -2.255973186038318e-14
  endloop
endfacet
facet normal 1.0 7.497846811062597e-16 -1.2014401666331276e-16
  outer loop
    vertex 1.9999999999999973 12.97500000000003 -2.255973186038318e-14
    vertex 1.999999999999996 17.538030999999982 57.711969000000195
    vertex 1.999999999999998 12.97500000000003 1.9999999999999738
  endloop
endfacet
facet normal 1.0 7.497846811062597e-16 -1.2014401666331276e-16
  outer loop
    vertex 2.0000000000000133 -1.9999999999999793 77.25000000000021
    vertex 1.999999999999998 12.97500000000003 1.9999999999999738
    vertex 1.999999999999996 17.538030999999982 57.711969000000195
  endloop
endfacet
facet normal 1.0 7.497846811062597e-16 -1.2014401666331276e-16
  outer loop
    vertex 1.999999999999998 12.97500000000003 1.9999999999999738
    vertex 2.0000000000000133 -1.9999999999999793 77.25000000000021
    vertex 1.9999999999999953 6.750000000000004 1.9999999999999738
  endloop
endfacet
facet normal 1.0 7.497846811062597e-16 -1.2014401666331276e-16
  outer loop
    vertex 1.9999999999999953 6.750000000000004 1.9999999999999738
    vertex 2.0000000000000133 -1.9999999999999793 77.25000000000021
    vertex 1.9999999999999833 6.750000000000004 -2.255973186038318e-14
  endloop
endfacet
facet normal 1.0 7.497846811062597e-16 -1.2014401666331276e-16
  outer loop
    vertex 1.9999999999999833 6.750000000000004 -2.255973186038318e-14
    vertex 2.0000000000000133 -1.9999999999999793 77.25000000000021
    vertex 2.0000000000000235 -1.3892879669893012 70.99719625441749
  endloop
endfacet
facet normal 1.0 7.497846811062597e-16 -1.2014401666331276e-16
  outer loop
    vertex 1.9999999999999833 6.750000000000004 -2.255973186038318e-14
    vertex 2.0000000000000235 -1.3892879669893012 70.99719625441749
    vertex 2.000000000000011 -0.8893533143435165 64.73456188770601
  endloop
endfacet
facet normal 1.0 7.497846811062597e-16 -1.2014401666331276e-16
  outer loop
    vertex 1.9999999999999833 6.750000000000004 -2.255973186038318e-14
    vertex 2.000000000000011 -0.8893533143435165 64.73456188770601
    vertex 2.0000000000000093 -0.5003526988715131 58.46405932497674
  endloop
endfacet
facet normal 1.0 7.497846811062597e-16 -1.2014401666331276e-16
  outer loop
    vertex 1.9999999999999833 6.750000000000004 -2.255973186038318e-14
    vertex 2.0000000000000093 -0.5003526988715131 58.46405932497674
    vertex 2.000000000000009 -0.22240801569473242 52.187653456876305
  endloop
endfacet
facet normal 1.0 7.497846811062597e-16 -1.2014401666331276e-16
  outer loop
    vertex 1.9999999999999833 6.750000000000004 -2.255973186038318e-14
    vertex 2.000000000000009 -0.22240801569473242 52.187653456876305
    vertex 2.0000000000000075 -0.055606360050384836 45.907311023879025
  endloop
endfacet
facet normal 1.0 7.497846811062597e-16 -1.2014401666331276e-16
  outer loop
    vertex 1.9999999999999833 6.750000000000004 -2.255973186038318e-14
    vertex 2.0000000000000075 -0.055606360050384836 45.907311023879025
    vertex 2.000000000000007 1.127986593019159e-14 39.624999999999865
  endloop
endfacet
facet normal 1.0 7.497846811062597e-16 -1.2014401666331276e-16
  outer loop
    vertex 1.9999999999999833 6.750000000000004 -2.255973186038318e-14
    vertex 2.000000000000007 1.127986593019159e-14 39.624999999999865
    vertex 1.9999999999999925 1.127986593019159e-14 0.0
  endloop
endfacet
facet normal 1.0 7.497846811062597e-16 -1.2014401666331276e-16
  outer loop
    vertex 1.9999999999999925 1.127986593019159e-14 0.0
    vertex 2.000000000000018 -1.389287966989403 8.252803745582291
    vertex 2.000000000000007 -1.9999999999999907 1.9999999999999962
  endloop
endfacet
facet normal 1.0 7.497846811062597e-16 -1.2014401666331276e-16
  outer loop
    vertex 2.000000000000018 -1.389287966989403 8.252803745582291
    vertex 1.9999999999999925 1.127986593019159e-14 0.0
    vertex 2.000000000000007 -0.8893533143435335 14.51543811229375
  endloop
endfacet
facet normal 1.0 7.497846811062597e-16 -1.2014401666331276e-16
  outer loop
    vertex 2.000000000000007 -0.8893533143435335 14.51543811229375
    vertex 1.9999999999999925 1.127986593019159e-14 0.0
    vertex 2.000000000000006 -0.5003526988715187 20.785940675023014
  endloop
endfacet
facet normal 1.0 7.497846811062597e-16 -1.2014401666331276e-16
  outer loop
    vertex 2.000000000000006 -0.5003526988715187 20.785940675023014
    vertex 1.9999999999999925 1.127986593019159e-14 0.0
    vertex 2.0000000000000067 -0.22240801569481702 27.062346543123436
  endloop
endfacet
facet normal 1.0 7.497846811062597e-16 -1.2014401666331276e-16
  outer loop
    vertex 2.0000000000000067 -0.22240801569481702 27.062346543123436
    vertex 1.9999999999999925 1.127986593019159e-14 0.0
    vertex 2.0000000000000067 -0.055606360050379194 33.34268897612069
  endloop
endfacet
facet normal 1.0 7.497846811062597e-16 -1.2014401666331276e-16
  outer loop
    vertex 2.0000000000000067 -0.055606360050379194 33.34268897612069
    vertex 1.9999999999999925 1.127986593019159e-14 0.0
    vertex 2.000000000000007 1.127986593019159e-14 39.624999999999865
  endloop
endfacet
facet normal 1.0 7.497846811062597e-16 -1.2014401666331276e-16
  outer loop
    vertex 1.9999999999999878 28.149999999999913 -4.511946372076636e-14
    vertex 1.9999999999999785 35.07606199999997 -3.3839597790574766e-14
    vertex 1.9999999999999887 28.149999999999913 1.9999999999999512
  endloop
endfacet
facet normal 1.4945482803743544e-14 0.7071067811865395 -0.7071067811865556
  outer loop
    vertex -2.06210049036315e-14 37.07606200000005 1.9999999999999625
    vertex 1.9999999999999785 35.07606199999997 -3.3839597790574766e-14
    vertex -2.9080904351275194e-14 35.076061999999965 -4.511946372076636e-14
  endloop
endfacet
facet normal 1.4945482803743544e-14 0.7071067811865395 -0.7071067811865556
  outer loop
    vertex 1.9999999999999785 35.07606199999997 -3.3839597790574766e-14
    vertex -2.06210049036315e-14 37.07606200000005 1.9999999999999625
    vertex 1.9999999999999762 37.07606199999997 1.9999999999999625
  endloop
endfacet
facet normal 9.083775169217397e-16 -0.7071067811865477 -0.7071067811865475
  outer loop
    vertex -3.877453913503359e-15 0.0 0.0
    vertex 2.000000000000007 -1.9999999999999907 1.9999999999999962
    vertex -8.81239525796218e-16 -1.9999999999999962 1.9999999999999962
  endloop
endfacet
facet normal 9.083775169217397e-16 -0.7071067811865477 -0.7071067811865475
  outer loop
    vertex 2.000000000000007 -1.9999999999999907 1.9999999999999962
    vertex -3.877453913503359e-15 0.0 0.0
    vertex 1.9999999999999925 1.127986593019159e-14 0.0
  endloop
endfacet
facet normal 9.371797235214578e-15 1.0 -1.5959455978986707e-16
  outer loop
    vertex 10.400000000000004 12.974999999999957 -2.255973186038318e-14
    vertex 1.999999999999998 12.97500000000003 1.9999999999999738
    vertex 10.400000000000004 12.974999999999957 1.9999999999999738
  endloop
endfacet
facet normal 9.371797235214578e-15 1.0 -1.5959455978986707e-16
  outer loop
    vertex 1.999999999999998 12.97500000000003 1.9999999999999738
    vertex 10.400000000000004 12.974999999999957 -2.255973186038318e-14
    vertex 1.9999999999999973 12.97500000000003 -2.255973186038318e-14
  endloop
endfacet
facet normal 1.0 8.193230913793395e-16 -8.629241792521608e-17
  outer loop
    vertex 12.399999999999995 27.14999999999989 6.999999999999976
    vertex 12.399999999999991 28.14999999999993 0.9999999999999644
    vertex 12.399999999999991 28.14999999999993 5.999999999999978
  endloop
endfacet
facet normal 1.0 8.193230913793395e-16 -8.629241792521608e-17
  outer loop
    vertex 12.399999999999991 28.14999999999993 0.9999999999999644
    vertex 12.399999999999995 27.14999999999989 6.999999999999976
    vertex 12.399999999999995 27.14999999999989 -4.511946372076636e-14
  endloop
endfacet
facet normal 1.0 8.193230913793395e-16 -8.629241792521608e-17
  outer loop
    vertex 12.399999999999995 27.14999999999989 -4.511946372076636e-14
    vertex 12.399999999999995 27.14999999999989 6.999999999999976
    vertex 12.400000000000007 7.749999999999969 6.9999999999999645
  endloop
endfacet
facet normal 1.0 8.193230913793395e-16 -8.629241792521608e-17
  outer loop
    vertex 12.399999999999995 27.14999999999989 -4.511946372076636e-14
    vertex 12.400000000000007 7.749999999999969 6.9999999999999645
    vertex 12.400000000000007 7.749999999999969 -2.255973186038318e-14
  endloop
endfacet
facet normal 1.0 8.193230913793395e-16 -8.629241792521608e-17
  outer loop
    vertex 12.400000000000007 7.749999999999969 -2.255973186038318e-14
    vertex 12.400000000000007 7.749999999999969 6.9999999999999645
    vertex 12.400000000000015 6.750000000000016 5.999999999999966
  endloop
endfacet
facet normal 1.0 8.193230913793395e-16 -8.629241792521608e-17
  outer loop
    vertex 12.400000000000007 7.749999999999969 -2.255973186038318e-14
    vertex 12.400000000000015 6.750000000000016 5.999999999999966
    vertex 12.400000000000015 6.750000000000016 0.9999999999999756
  endloop
endfacet
facet normal 1.370932222110736e-15 -1.0 1.5959455978986613e-16
  outer loop
    vertex 1.9999999999999851 21.92499999999998 -4.511946372076636e-14
    vertex 10.399999999999991 21.924999999999997 1.9999999999999738
    vertex 1.9999999999999858 21.92499999999998 1.9999999999999738
  endloop
endfacet
facet normal 1.370932222110736e-15 -1.0 1.5959455978986613e-16
  outer loop
    vertex 10.399999999999991 21.924999999999997 1.9999999999999738
    vertex 1.9999999999999851 21.92499999999998 -4.511946372076636e-14
    vertex 10.399999999999991 21.924999999999997 -4.511946372076636e-14
  endloop
endfacet
facet normal -1.370932222110736e-15 1.0 -1.5959455978986613e-16
  outer loop
    vertex 12.399999999999991 28.14999999999993 5.999999999999978
    vertex 10.399999999999986 28.14999999999993 6.999999999999976
    vertex 11.399999999999997 28.14999999999993 6.999999999999976
  endloop
endfacet
facet normal -1.370932222110736e-15 1.0 -1.5959455978986613e-16
  outer loop
    vertex 10.399999999999986 28.14999999999993 6.999999999999976
    vertex 12.399999999999991 28.14999999999993 5.999999999999978
    vertex 10.399999999999984 28.149999999999928 1.9999999999999512
  endloop
endfacet
facet normal -1.370932222110736e-15 1.0 -1.5959455978986613e-16
  outer loop
    vertex 10.399999999999984 28.149999999999928 1.9999999999999512
    vertex 12.399999999999991 28.14999999999993 5.999999999999978
    vertex 12.399999999999991 28.14999999999993 0.9999999999999644
  endloop
endfacet
facet normal -1.370932222110736e-15 1.0 -1.5959455978986613e-16
  outer loop
    vertex 10.399999999999984 28.149999999999928 1.9999999999999512
    vertex 12.399999999999991 28.14999999999993 0.9999999999999644
    vertex 1.9999999999999887 28.149999999999913 1.9999999999999512
  endloop
endfacet
facet normal -1.370932222110736e-15 1.0 -1.5959455978986613e-16
  outer loop
    vertex 1.9999999999999887 28.149999999999913 1.9999999999999512
    vertex 12.399999999999991 28.14999999999993 0.9999999999999644
    vertex 1.9999999999999878 28.149999999999913 -4.511946372076636e-14
  endloop
endfacet
facet normal -1.370932222110736e-15 1.0 -1.5959455978986613e-16
  outer loop
    vertex 1.9999999999999878 28.149999999999913 -4.511946372076636e-14
    vertex 12.399999999999991 28.14999999999993 0.9999999999999644
    vertex 11.399999999999993 28.14999999999993 -4.511946372076636e-14
  endloop
endfacet
facet normal 8.629241792521105e-17 3.783647870694831e-15 1.0
  outer loop
    vertex 10.399999999999991 21.924999999999997 1.9999999999999738
    vertex 1.9999999999999887 28.149999999999913 1.9999999999999512
    vertex 1.9999999999999858 21.92499999999998 1.9999999999999738
  endloop
endfacet
facet normal 8.629241792521105e-17 3.783647870694831e-15 1.0
  outer loop
    vertex 1.9999999999999887 28.149999999999913 1.9999999999999512
    vertex 10.399999999999991 21.924999999999997 1.9999999999999738
    vertex 10.399999999999984 28.149999999999928 1.9999999999999512
  endloop
endfacet
facet normal 3.885996267708534e-16 -1.083839495539078e-15 -1.0
  outer loop
    vertex 1.9999999999999785 35.07606199999997 -3.3839597790574766e-14
    vertex 1.9999999999999833 6.750000000000004 -2.255973186038318e-14
    vertex -2.9080904351275194e-14 35.076061999999965 -4.511946372076636e-14
  endloop
endfacet
facet normal 3.885996267708534e-16 -1.083839495539078e-15 -1.0
  outer loop
    vertex 1.9999999999999833 6.750000000000004 -2.255973186038318e-14
    vertex 1.9999999999999785 35.07606199999997 -3.3839597790574766e-14
    vertex 1.9999999999999851 21.92499999999998 -4.511946372076636e-14
  endloop
endfacet
facet normal 3.885996267708534e-16 -1.083839495539078e-15 -1.0
  outer loop
    vertex 1.9999999999999851 21.92499999999998 -4.511946372076636e-14
    vertex 1.9999999999999785 35.07606199999997 -3.3839597790574766e-14
    vertex 1.9999999999999878 28.149999999999913 -4.511946372076636e-14
  endloop
endfacet
facet normal 3.885996267708534e-16 -1.083839495539078e-15 -1.0
  outer loop
    vertex 1.9999999999999851 21.92499999999998 -4.511946372076636e-14
    vertex 1.9999999999999878 28.149999999999913 -4.511946372076636e-14
    vertex 10.399999999999991 21.924999999999997 -4.511946372076636e-14
  endloop
endfacet
facet normal 3.885996267708534e-16 -1.083839495539078e-15 -1.0
  outer loop
    vertex 10.399999999999991 21.924999999999997 -4.511946372076636e-14
    vertex 1.9999999999999878 28.149999999999913 -4.511946372076636e-14
    vertex 11.399999999999993 28.14999999999993 -4.511946372076636e-14
  endloop
endfacet
facet normal 3.885996267708534e-16 -1.083839495539078e-15 -1.0
  outer loop
    vertex 10.399999999999991 21.924999999999997 -4.511946372076636e-14
    vertex 11.399999999999993 28.14999999999993 -4.511946372076636e-14
    vertex 10.400000000000004 12.974999999999957 -2.255973186038318e-14
  endloop
endfacet
facet normal 3.885996267708534e-16 -1.083839495539078e-15 -1.0
  outer loop
    vertex 10.400000000000004 12.974999999999957 -2.255973186038318e-14
    vertex 11.399999999999993 28.14999999999993 -4.511946372076636e-14
    vertex 11.399999999999999 6.750000000000016 0.0
  endloop
endfacet
facet normal 3.885996267708534e-16 -1.083839495539078e-15 -1.0
  outer loop
    vertex 11.399999999999999 6.750000000000016 0.0
    vertex 11.399999999999993 28.14999999999993 -4.511946372076636e-14
    vertex 12.400000000000007 7.749999999999969 -2.255973186038318e-14
  endloop
endfacet
facet normal 3.885996267708534e-16 -1.083839495539078e-15 -1.0
  outer loop
    vertex 12.400000000000007 7.749999999999969 -2.255973186038318e-14
    vertex 11.399999999999993 28.14999999999993 -4.511946372076636e-14
    vertex 12.399999999999995 27.14999999999989 -4.511946372076636e-14
  endloop
endfacet
facet normal 3.885996267708534e-16 -1.083839495539078e-15 -1.0
  outer loop
    vertex 1.9999999999999833 6.750000000000004 -2.255973186038318e-14
    vertex 1.9999999999999973 12.97500000000003 -2.255973186038318e-14
    vertex 11.399999999999999 6.750000000000016 0.0
  endloop
endfacet
facet normal 3.885996267708534e-16 -1.083839495539078e-15 -1.0
  outer loop
    vertex 1.9999999999999973 12.97500000000003 -2.255973186038318e-14
    vertex 1.9999999999999833 6.750000000000004 -2.255973186038318e-14
    vertex 1.9999999999999851 21.92499999999998 -4.511946372076636e-14
  endloop
endfacet
facet normal 3.885996267708534e-16 -1.083839495539078e-15 -1.0
  outer loop
    vertex 11.399999999999999 6.750000000000016 0.0
    vertex 1.9999999999999973 12.97500000000003 -2.255973186038318e-14
    vertex 10.400000000000004 12.974999999999957 -2.255973186038318e-14
  endloop
endfacet
facet normal 3.885996267708534e-16 -1.083839495539078e-15 -1.0
  outer loop
    vertex -2.9080904351275194e-14 35.076061999999965 -4.511946372076636e-14
    vertex 1.9999999999999925 1.127986593019159e-14 0.0
    vertex -3.877453913503359e-15 0.0 0.0
  endloop
endfacet
facet normal 3.885996267708534e-16 -1.083839495539078e-15 -1.0
  outer loop
    vertex 1.9999999999999925 1.127986593019159e-14 0.0
    vertex -2.9080904351275194e-14 35.076061999999965 -4.511946372076636e-14
    vertex 1.9999999999999833 6.750000000000004 -2.255973186038318e-14
  endloop
endfacet
endsolid Dice Roller 4.7 Banner
