999
Inkscape export via OpenSCAD DXF Export
  0
SECTION
  2
HEADER
  9
$ACADVER
  1
AC1014
  9
$HANDSEED
  5
FFFF
  9
$MEASUREMENT
 70
     1
  0
ENDSEC
  0
SECTION
  2
TABLES
  0
TABLE
  2
VPORT
  5
8
330
0
100
AcDbSymbolTable
 70
     4
  0
VPORT
  5
2E
330
8
100
AcDbSymbolTableRecord
100
AcDbViewportTableRecord
  2
*ACTIVE
 70
     0
 10
0.0
 20
0.0
 11
1.0
 21
1.0
 12
210.0
 22
148.5
 13
0.0
 23
0.0
 14
10.0
 24
10.0
 15
10.0
 25
10.0
 16
0.0
 26
0.0
 36
1.0
 17
0.0
 27
0.0
 37
0.0
 40
341.0
 41
1.24
 42
50.0
 43
0.0
 44
0.0
 50
0.0
 51
0.0
 71
     0
 72
   100
 73
     1
 74
     3
 75
     0
 76
     0
 77
     0
 78
     0
  0
ENDTAB
  0
TABLE
  2
LTYPE
  5
5
330
0
100
AcDbSymbolTable
 70
     1
  0
LTYPE
  5
14
330
5
100
AcDbSymbolTableRecord
100
AcDbLinetypeTableRecord
  2
BYBLOCK
 70
     0
  3

 72
    65
 73
     0
 40
0.0
  0
LTYPE
  5
15
330
5
100
AcDbSymbolTableRecord
100
AcDbLinetypeTableRecord
  2
BYLAYER
 70
     0
  3

 72
    65
 73
     0
 40
0.0
  0
LTYPE
  5
16
330
5
100
AcDbSymbolTableRecord
100
AcDbLinetypeTableRecord
  2
CONTINUOUS
 70
     0
  3
Solid line
 72
    65
 73
     0
 40
0.0
  0
ENDTAB
  0
TABLE
0
TABLE
2
LAYER
5
2
330
0
100
AcDbSymbolTable
70
1
0
LAYER
5
10
330
2
100
AcDbSymbolTableRecord
100
AcDbLayerTableRecord
2
Layer_1
70
0
62
7
6
CONTINUOUS
0
ENDTAB
0
ENDSEC
  0
ENDTAB
  0
TABLE
  2
STYLE
  5
3
330
0
100
AcDbSymbolTable
 70
     1
  0
STYLE
  5
11
330
3
100
AcDbSymbolTableRecord
100
AcDbTextStyleTableRecord
  2
STANDARD
 70
     0
 40
0.0
 41
1.0
 50
0.0
 71
     0
 42
2.5
  3
txt
  4

  0
ENDTAB
  0
TABLE
  2
VIEW
  5
6
330
0
100
AcDbSymbolTable
 70
     0
  0
ENDTAB
  0
TABLE
  2
UCS
  5
7
330
0
100
AcDbSymbolTable
 70
     0
  0
ENDTAB
  0
TABLE
  2
APPID
  5
9
330
0
100
AcDbSymbolTable
 70
     2
  0
APPID
  5
12
330
9
100
AcDbSymbolTableRecord
100
AcDbRegAppTableRecord
  2
ACAD
 70
     0
  0
ENDTAB
  0
TABLE
  2
DIMSTYLE
  5
A
330
0
100
AcDbSymbolTable
 70
     1
  0
DIMSTYLE
105
27
330
A
100
AcDbSymbolTableRecord
100
AcDbDimStyleTableRecord
  2
ISO-25
 70
     0
  3

  4

  5

  6

  7

 40
1.0
 41
2.5
 42
0.625
 43
3.75
 44
1.25
 45
0.0
 46
0.0
 47
0.0
 48
0.0
140
2.5
141
2.5
142
0.0
143
0.03937007874016
144
1.0
145
0.0
146
1.0
147
0.625
 71
     0
 72
     0
 73
     0
 74
     0
 75
     0
 76
     0
 77
     1
 78
     8
170
     0
171
     3
172
     1
173
     0
174
     0
175
     0
176
     0
177
     0
178
     0
270
     2
271
     2
272
     2
273
     2
274
     3
340
11
275
     0
280
     0
281
     0
282
     0
283
     0
284
     8
285
     0
286
     0
287
     3
288
     0
  0
ENDTAB
  0
TABLE
  2
BLOCK_RECORD
  5
1
330
0
100
AcDbSymbolTable
 70
     1
  0
BLOCK_RECORD
  5
1F
330
1
100
AcDbSymbolTableRecord
100
AcDbBlockTableRecord
  2
*MODEL_SPACE
  0
BLOCK_RECORD
  5
1B
330
1
100
AcDbSymbolTableRecord
100
AcDbBlockTableRecord
  2
*PAPER_SPACE
  0
ENDTAB
  0
ENDSEC
  0
SECTION
  2
BLOCKS
  0
BLOCK
  5
20
330
1F
100
AcDbEntity
  8
0
100
AcDbBlockBegin
  2
*MODEL_SPACE
 70
     0
 10
0.0
 20
0.0
 30
0.0
  3
*MODEL_SPACE
  1

  0
ENDBLK
  5
21
330
1F
100
AcDbEntity
  8
0
100
AcDbBlockEnd
  0
BLOCK
  5
1C
330
1B
100
AcDbEntity
 67
     1
  8
0
100
AcDbBlockBegin
  2
*PAPER_SPACE
  1

  0
ENDBLK
  5
1D
330
1B
100
AcDbEntity
 67
     1
  8
0
100
AcDbBlockEnd
  0
ENDSEC
  0
SECTION
  2
ENTITIES
0
DIMENSION
5
83
100
AcDbEntity
62
256
370
-1
6
ByLayer
1
total_width
3
Standard
70
0
71
5
72
1
41
1.0
100
AcDbAlignedDimension
13
0.000000
23
0.000000
33
0.0
14
24.839414
24
0.000000
34
0.0
50
0.000000
100
AcDbRotatedDimension
0
DIMENSION
5
83
100
AcDbEntity
62
256
370
-1
6
ByLayer
1
total_minx
3
Standard
70
0
71
5
72
1
41
1.0
100
AcDbAlignedDimension
13
0.000000
23
0.000000
33
0.0
14
0.000000
24
0.000000
34
0.0
50
0.000000
100
AcDbRotatedDimension
0
DIMENSION
5
83
100
AcDbEntity
62
256
370
-1
6
ByLayer
1
total_maxx
3
Standard
70
0
71
5
72
1
41
1.0
100
AcDbAlignedDimension
13
0.000000
23
0.000000
33
0.0
14
24.839414
24
0.000000
34
0.0
50
0.000000
100
AcDbRotatedDimension
0
DIMENSION
5
83
100
AcDbEntity
62
256
370
-1
6
ByLayer
1
total_height
3
Standard
70
0
71
5
72
1
41
1.0
100
AcDbAlignedDimension
13
0.000000
23
-0.000190
33
0.0
14
0.000000
24
24.839224
34
0.0
50
90.000000
100
AcDbRotatedDimension
0
DIMENSION
5
83
100
AcDbEntity
62
256
370
-1
6
ByLayer
1
total_miny
3
Standard
70
0
71
5
72
1
41
1.0
100
AcDbAlignedDimension
13
-0.000190
23
0.000000
33
0.0
14
0.000000
24
0.000000
34
0.0
50
0.000000
100
AcDbRotatedDimension
0
DIMENSION
5
83
100
AcDbEntity
62
256
370
-1
6
ByLayer
1
total_maxy
3
Standard
70
0
71
5
72
1
41
1.0
100
AcDbAlignedDimension
13
0.000000
23
0.000000
33
0.0
14
24.839224
24
0.000000
34
0.0
50
0.000000
100
AcDbRotatedDimension
0
DIMENSION
8
Layer_1
5
83
100
AcDbEntity
62
256
370
-1
6
ByLayer
1
Layer_1_width
3
Standard
70
0
71
5
72
1
41
1.0
100
AcDbAlignedDimension
13
0.000000
23
0.000000
33
0.0
14
24.839414
24
0.000000
34
0.0
50
0.000000
100
AcDbRotatedDimension
0
DIMENSION
8
Layer_1
5
83
100
AcDbEntity
62
256
370
-1
6
ByLayer
1
Layer_1_minx
3
Standard
70
0
71
5
72
1
41
1.0
100
AcDbAlignedDimension
13
0.000000
23
0.000000
33
0.0
14
0.000000
24
0.000000
34
0.0
50
0.000000
100
AcDbRotatedDimension
0
DIMENSION
8
Layer_1
5
83
100
AcDbEntity
62
256
370
-1
6
ByLayer
1
Layer_1_maxx
3
Standard
70
0
71
5
72
1
41
1.0
100
AcDbAlignedDimension
13
0.000000
23
0.000000
33
0.0
14
24.839414
24
0.000000
34
0.0
50
0.000000
100
AcDbRotatedDimension
0
DIMENSION
8
Layer_1
5
83
100
AcDbEntity
62
256
370
-1
6
ByLayer
1
Layer_1_height
3
Standard
70
0
71
5
72
1
41
1.0
100
AcDbAlignedDimension
13
0.000000
23
-0.000190
33
0.0
14
0.000000
24
24.839224
34
0.0
50
90.000000
100
AcDbRotatedDimension
0
DIMENSION
8
Layer_1
5
83
100
AcDbEntity
62
256
370
-1
6
ByLayer
1
Layer_1_miny
3
Standard
70
0
71
5
72
1
41
1.0
100
AcDbAlignedDimension
13
-0.000190
23
0.000000
33
0.0
14
0.000000
24
0.000000
34
0.0
50
0.000000
100
AcDbRotatedDimension
0
DIMENSION
8
Layer_1
5
83
100
AcDbEntity
62
256
370
-1
6
ByLayer
1
Layer_1_maxy
3
Standard
70
0
71
5
72
1
41
1.0
100
AcDbAlignedDimension
13
0.000000
23
0.000000
33
0.0
14
24.839224
24
0.000000
34
0.0
50
0.000000
100
AcDbRotatedDimension
62
0
0
LWPOLYLINE
100
AcDbPolyline
8
Layer_1
90
69
70
0
10
17.332960
20
15.255522
30
0.0
10
17.241996
20
15.718120
30
0.0
10
16.993235
20
16.099014
30
0.0
10
16.622871
20
16.362327
30
0.0
10
16.167100
20
16.472182
30
0.0
10
16.173873
20
16.572653
30
0.0
10
16.089242
20
16.933369
30
0.0
10
15.862582
20
17.211322
30
0.0
10
15.874436
20
17.372189
30
0.0
10
15.778634
20
17.846772
30
0.0
10
15.517389
20
18.234307
30
0.0
10
15.129938
20
18.495583
30
0.0
10
14.655518
20
18.591389
30
0.0
10
14.067896
20
18.440435
30
0.0
10
13.636696
20
18.040773
30
0.0
10
13.195617
20
18.539883
30
0.0
10
12.538851
20
18.732500
30
0.0
10
11.906215
20
18.555511
30
0.0
10
11.466407
20
18.092984
30
0.0
10
11.030867
20
18.522103
30
0.0
10
10.422184
20
18.685369
30
0.0
10
9.801437
20
18.515224
30
0.0
10
9.363569
20
18.069278
30
0.0
10
8.634871
20
18.312553
30
0.0
10
7.908149
20
18.072276
30
0.0
10
7.472680
20
17.462218
30
0.0
10
7.371080
20
17.469273
30
0.0
10
6.796299
20
17.231254
30
0.0
10
6.558280
20
16.656473
30
0.0
10
6.713220
20
16.180364
30
0.0
10
6.402070
20
15.772800
30
0.0
10
6.286500
20
15.254958
30
0.0
10
6.564207
20
14.480258
30
0.0
10
6.457527
20
14.078938
30
0.0
10
6.561667
20
13.681569
30
0.0
10
6.380480
20
13.044311
30
0.0
10
6.476281
20
12.569728
30
0.0
10
6.737526
20
12.182193
30
0.0
10
7.124978
20
11.920917
30
0.0
10
7.599398
20
11.825111
30
0.0
10
7.990840
20
11.890304
30
0.0
10
8.252813
20
11.668866
30
0.0
10
8.593102
20
11.575062
30
0.0
10
9.025220
20
10.945248
30
0.0
10
9.763196
20
10.696222
30
0.0
10
10.340657
20
10.841602
30
0.0
10
10.769318
20
11.227647
30
0.0
10
11.268287
20
11.055773
30
0.0
10
11.300460
20
11.057467
30
0.0
10
11.702838
20
10.759652
30
0.0
10
12.208933
20
10.649373
30
0.0
10
12.647251
20
10.730658
30
0.0
10
13.014607
20
10.954209
30
0.0
10
13.280893
20
11.289572
30
0.0
10
13.415998
20
11.706296
30
0.0
10
13.836544
20
11.018696
30
0.0
10
14.607822
20
10.743636
30
0.0
10
15.341529
20
10.989381
30
0.0
10
15.775093
20
11.611469
30
0.0
10
15.790333
20
11.610622
30
0.0
10
16.365114
20
11.848641
30
0.0
10
16.603133
20
12.423422
30
0.0
10
16.572653
20
12.641862
30
0.0
10
17.086792
20
13.083505
30
0.0
10
17.285547
20
13.750149
30
0.0
10
17.047069
20
14.472356
30
0.0
10
17.256901
20
14.831660
30
0.0
10
17.332960
20
15.255522
30
0.0
10
17.332960
20
15.255522
30
0.0
62
0
0
LWPOLYLINE
100
AcDbPolyline
8
Layer_1
90
21
70
0
10
15.985243
20
17.986516
30
0.0
10
16.124701
20
17.372462
30
0.0
10
16.118085
20
17.283717
30
0.0
10
16.401410
20
16.668009
30
0.0
10
16.867660
20
16.488521
30
0.0
10
17.242617
20
16.175184
30
0.0
10
17.492423
20
15.755206
30
0.0
10
17.583215
20
15.255796
30
0.0
10
17.356666
20
14.514962
30
0.0
10
18.514123
20
14.120624
30
0.0
10
19.007525
20
14.170704
30
0.0
10
19.395060
20
14.399207
30
0.0
10
19.664295
20
14.953807
30
0.0
10
19.610753
20
15.681166
30
0.0
10
19.258920
20
16.488536
30
0.0
10
18.633281
20
17.283165
30
0.0
10
17.986450
20
17.765190
30
0.0
10
17.283864
20
18.029204
30
0.0
10
16.593976
20
18.096036
30
0.0
10
15.985242
20
17.986516
30
0.0
10
15.985243
20
17.986516
30
0.0
62
0
0
LWPOLYLINE
100
AcDbPolyline
8
Layer_1
90
10
70
0
10
15.079045
20
10.576529
30
0.0
10
14.607756
20
10.493847
30
0.0
10
14.373490
20
10.515897
30
0.0
10
14.373490
20
9.399686
30
0.0
10
14.476854
20
9.150272
30
0.0
10
14.726268
20
9.046908
30
0.0
10
14.975681
20
9.150272
30
0.0
10
15.079045
20
9.399686
30
0.0
10
15.079045
20
10.576531
30
0.0
10
15.079045
20
10.576529
30
0.0
62
0
0
LWPOLYLINE
100
AcDbPolyline
8
Layer_1
90
10
70
0
10
13.809045
20
10.742996
30
0.0
10
13.441385
20
11.096876
30
0.0
10
13.103490
20
10.719294
30
0.0
10
13.103490
20
9.046907
30
0.0
10
13.206854
20
8.797493
30
0.0
10
13.456268
20
8.694129
30
0.0
10
13.705681
20
8.797493
30
0.0
10
13.809045
20
9.046907
30
0.0
10
13.809045
20
10.742996
30
0.0
10
13.809045
20
10.742996
30
0.0
62
0
0
LWPOLYLINE
100
AcDbPolyline
8
Layer_1
90
10
70
0
10
9.975343
20
10.466286
30
0.0
10
9.763125
20
10.446443
30
0.0
10
9.269787
20
10.537945
30
0.0
10
9.269787
20
9.399685
30
0.0
10
9.373151
20
9.150272
30
0.0
10
9.622565
20
9.046908
30
0.0
10
9.871979
20
9.150272
30
0.0
10
9.975343
20
9.399685
30
0.0
10
9.975343
20
10.466287
30
0.0
10
9.975343
20
10.466286
30
0.0
62
0
0
LWPOLYLINE
100
AcDbPolyline
8
Layer_1
90
10
70
0
10
8.705343
20
10.919936
30
0.0
10
8.417057
20
11.370830
30
0.0
10
7.999787
20
11.564307
30
0.0
10
7.999787
20
9.046907
30
0.0
10
8.103151
20
8.797493
30
0.0
10
8.352565
20
8.694129
30
0.0
10
8.601979
20
8.797493
30
0.0
10
8.705343
20
9.046907
30
0.0
10
8.705343
20
10.919936
30
0.0
10
8.705343
20
10.919936
30
0.0
62
0
0
LWPOLYLINE
100
AcDbPolyline
8
Layer_1
90
34
70
0
10
12.419982
20
24.839224
30
0.0
10
9.918879
20
24.586615
30
0.0
10
7.588439
20
23.862243
30
0.0
10
5.478846
20
22.716290
30
0.0
10
3.640283
20
21.198941
30
0.0
10
2.122934
20
19.360379
30
0.0
10
0.976982
20
17.250786
30
0.0
10
0.252609
20
14.920346
30
0.0
10
0.000000
20
12.419242
30
0.0
10
0.252609
20
9.918162
30
0.0
10
0.976982
20
7.587784
30
0.0
10
2.122934
20
5.478280
30
0.0
10
3.640283
20
3.639818
30
0.0
10
5.478846
20
2.122570
30
0.0
10
7.588439
20
0.976706
30
0.0
10
9.918879
20
0.252396
30
0.0
10
12.419982
20
-0.000190
30
0.0
10
14.921063
20
0.252396
30
0.0
10
17.251440
20
0.976706
30
0.0
10
19.360945
20
2.122570
30
0.0
10
21.199406
20
3.639818
30
0.0
10
22.716654
20
5.478280
30
0.0
10
23.862518
20
7.587784
30
0.0
10
24.586828
20
9.918162
30
0.0
10
24.839414
20
12.419242
30
0.0
10
24.586828
20
14.920346
30
0.0
10
23.862518
20
17.250786
30
0.0
10
22.716654
20
19.360379
30
0.0
10
21.199406
20
21.198941
30
0.0
10
19.360945
20
22.716290
30
0.0
10
17.251440
20
23.862243
30
0.0
10
14.921063
20
24.586615
30
0.0
10
12.419982
20
24.839224
30
0.0
10
12.419982
20
24.839224
30
0.0
62
0
0
LWPOLYLINE
100
AcDbPolyline
8
Layer_1
90
34
70
0
10
12.419982
20
23.710336
30
0.0
10
14.697391
20
23.481210
30
0.0
10
16.817667
20
22.823948
30
0.0
10
18.735648
20
21.783724
30
0.0
10
20.406176
20
20.405710
30
0.0
10
21.784088
20
18.735082
30
0.0
10
22.824224
20
16.817012
30
0.0
10
23.481423
20
14.696674
30
0.0
10
23.710525
20
12.419242
30
0.0
10
23.481423
20
10.141833
30
0.0
10
22.824224
20
8.021558
30
0.0
10
21.784088
20
6.103576
30
0.0
10
20.406176
20
4.433049
30
0.0
10
18.735648
20
3.055137
30
0.0
10
16.817667
20
2.015001
30
0.0
10
14.697391
20
1.357801
30
0.0
10
12.419982
20
1.128699
30
0.0
10
10.142550
20
1.357801
30
0.0
10
8.022212
20
2.015001
30
0.0
10
6.104142
20
3.055137
30
0.0
10
4.433514
20
4.433049
30
0.0
10
3.055501
20
6.103576
30
0.0
10
2.015277
20
8.021558
30
0.0
10
1.358015
20
10.141833
30
0.0
10
1.128889
20
12.419242
30
0.0
10
1.358015
20
14.696674
30
0.0
10
2.015277
20
16.817012
30
0.0
10
3.055501
20
18.735082
30
0.0
10
4.433514
20
20.405710
30
0.0
10
6.104142
20
21.783724
30
0.0
10
8.022212
20
22.823948
30
0.0
10
10.142550
20
23.481210
30
0.0
10
12.419982
20
23.710336
30
0.0
10
12.419982
20
23.710336
30
0.0
62
0
0
LWPOLYLINE
100
AcDbPolyline
8
Layer_1
90
14
70
0
10
17.619133
20
6.142002
30
0.0
10
17.215427
20
5.912498
30
0.0
10
16.065768
20
5.717935
30
0.0
10
12.315613
20
5.542280
30
0.0
10
8.565459
20
5.717935
30
0.0
10
7.428870
20
5.908563
30
0.0
10
7.012094
20
6.142002
30
0.0
10
7.428870
20
6.375441
30
0.0
10
8.565459
20
6.566070
30
0.0
10
12.315613
20
6.741724
30
0.0
10
16.065768
20
6.566070
30
0.0
10
17.215427
20
6.371506
30
0.0
10
17.619133
20
6.142002
30
0.0
10
17.619133
20
6.142002
30
0.0
  0
ENDSEC
  0
SECTION
  2
OBJECTS
  0
DICTIONARY
  5
C
330
0
100
AcDbDictionary
  3
ACAD_GROUP
350
D
  3
ACAD_MLINESTYLE
350
17
  0
DICTIONARY
  5
D
330
C
100
AcDbDictionary
  0
DICTIONARY
  5
1A
330
C
100
AcDbDictionary
  0
DICTIONARY
  5
17
330
C
100
AcDbDictionary
  3
STANDARD
350
18
  0
DICTIONARY
  5
19
330
C
100
AcDbDictionary
  0
ENDSEC
  0
EOF
